<svg xmlns="http://www.w3.org/2000/svg" width="428" height="436" viewBox="0 0 428 436" fill="none">
  <path d="M4.10436 444L7.54557 436.009L16.2087 435.206L9.67236 429.464L11.5853 420.976L4.10436 425.418L-3.37655 420.976L-1.46365 429.464L-8 435.206L0.66314 436.009L4.10436 444Z" fill="url(#paint0_linear_1_1908)"/>
  <path d="M88.1044 444L91.5456 436.009L100.209 435.206L93.6724 429.464L95.5853 420.976L88.1044 425.418L80.6235 420.976L82.5364 429.464L76 435.206L84.6631 436.009L88.1044 444Z" fill="url(#paint1_linear_1_1908)"/>
  <path d="M46.1044 409.636L51.6103 396.851L65.4713 395.565L55.0132 386.378L58.0738 372.798L46.1044 379.905L34.1349 372.798L37.1955 386.378L26.7374 395.565L40.5984 396.851L46.1044 409.636Z" fill="url(#paint2_linear_1_1908)"/>
  <path d="M91.5456 352.009L88.1044 360L84.6631 352.009L76 351.206L82.5364 345.464L80.6235 336.976L88.1044 341.418L95.5853 336.976L93.6724 345.464L100.209 351.206L91.5456 352.009Z" fill="url(#paint3_linear_1_1908)"/>
  <path d="M7.54557 352.009L4.10436 360L0.66314 352.009L-8 351.206L-1.46365 345.464L-3.37655 336.976L4.10436 341.418L11.5853 336.976L9.67236 345.464L16.2087 351.206L7.54557 352.009Z" fill="url(#paint4_linear_1_1908)"/>
  <path d="M130.104 409.636L135.61 396.851L149.471 395.565L139.013 386.378L142.074 372.798L130.104 379.905L118.135 372.798L121.196 386.378L110.737 395.565L124.598 396.851L130.104 409.636Z" fill="url(#paint5_linear_1_1908)"/>
  <path d="M175.546 436.009L172.104 444L168.663 436.009L160 435.206L166.536 429.464L164.623 420.976L172.104 425.418L179.585 420.976L177.672 429.464L184.209 435.206L175.546 436.009Z" fill="url(#paint6_linear_1_1908)"/>
  <path d="M172.104 360L175.546 352.009L184.209 351.206L177.672 345.464L179.585 336.976L172.104 341.418L164.623 336.976L166.536 345.464L160 351.206L168.663 352.009L172.104 360Z" fill="url(#paint7_linear_1_1908)"/>
  <path d="M219.61 396.851L214.104 409.636L208.598 396.851L194.737 395.565L205.196 386.378L202.135 372.798L214.104 379.905L226.074 372.798L223.013 386.378L233.471 395.565L219.61 396.851Z" fill="url(#paint8_linear_1_1908)"/>
  <path d="M256.104 444L259.546 436.009L268.209 435.206L261.672 429.464L263.585 420.976L256.104 425.418L248.623 420.976L250.536 429.464L244 435.206L252.663 436.009L256.104 444Z" fill="url(#paint9_linear_1_1908)"/>
  <path d="M259.546 352.009L256.104 360L252.663 352.009L244 351.206L250.536 345.464L248.623 336.976L256.104 341.418L263.585 336.976L261.672 345.464L268.209 351.206L259.546 352.009Z" fill="url(#paint10_linear_1_1908)"/>
  <path d="M298.104 409.636L303.61 396.851L317.471 395.565L307.013 386.378L310.074 372.798L298.104 379.905L286.135 372.798L289.196 386.378L278.737 395.565L292.598 396.851L298.104 409.636Z" fill="url(#paint11_linear_1_1908)"/>
  <path d="M343.546 436.009L340.104 444L336.663 436.009L328 435.206L334.536 429.464L332.623 420.976L340.104 425.418L347.585 420.976L345.672 429.464L352.209 435.206L343.546 436.009Z" fill="url(#paint12_linear_1_1908)"/>
  <path d="M340.104 360L343.546 352.009L352.209 351.206L345.672 345.464L347.585 336.976L340.104 341.418L332.623 336.976L334.536 345.464L328 351.206L336.663 352.009L340.104 360Z" fill="url(#paint13_linear_1_1908)"/>
  <path d="M387.61 396.851L382.104 409.636L376.598 396.851L362.737 395.565L373.196 386.378L370.135 372.798L382.104 379.905L394.074 372.798L391.013 386.378L401.471 395.565L387.61 396.851Z" fill="url(#paint14_linear_1_1908)"/>
  <path d="M424.104 444L427.546 436.009L436.209 435.206L429.672 429.464L431.585 420.976L424.104 425.418L416.623 420.976L418.536 429.464L412 435.206L420.663 436.009L424.104 444Z" fill="url(#paint15_linear_1_1908)"/>
  <path d="M427.546 352.009L424.104 360L420.663 352.009L412 351.206L418.536 345.464L416.623 336.976L424.104 341.418L431.585 336.976L429.672 345.464L436.209 351.206L427.546 352.009Z" fill="url(#paint16_linear_1_1908)"/>
  <path d="M46.1044 325.636L51.6103 312.851L65.4713 311.565L55.0132 302.378L58.0738 288.798L46.1044 295.905L34.1349 288.798L37.1955 302.378L26.7374 311.565L40.5984 312.851L46.1044 325.636Z" fill="url(#paint17_linear_1_1908)"/>
  <path d="M88.1044 276L91.5456 268.009L100.209 267.206L93.6724 261.464L95.5853 252.976L88.1044 257.418L80.6235 252.976L82.5364 261.464L76 267.206L84.6631 268.009L88.1044 276Z" fill="url(#paint18_linear_1_1908)"/>
  <path d="M4.10436 276L7.54557 268.009L16.2087 267.206L9.67236 261.464L11.5853 252.976L4.10436 257.418L-3.37655 252.976L-1.46365 261.464L-8 267.206L0.66314 268.009L4.10436 276Z" fill="url(#paint19_linear_1_1908)"/>
  <path d="M135.61 312.851L130.104 325.636L124.598 312.851L110.737 311.565L121.196 302.378L118.135 288.798L130.104 295.905L142.074 288.798L139.013 302.378L149.471 311.565L135.61 312.851Z" fill="url(#paint20_linear_1_1908)"/>
  <path d="M175.546 268.009L172.104 276L168.663 268.009L160 267.206L166.536 261.464L164.623 252.976L172.104 257.418L179.585 252.976L177.672 261.464L184.209 267.206L175.546 268.009Z" fill="url(#paint21_linear_1_1908)"/>
  <path d="M214.104 325.636L219.61 312.851L233.471 311.565L223.013 302.378L226.074 288.798L214.104 295.905L202.135 288.798L205.196 302.378L194.737 311.565L208.598 312.851L214.104 325.636Z" fill="url(#paint22_linear_1_1908)"/>
  <path d="M256.104 276L259.546 268.009L268.209 267.206L261.672 261.464L263.585 252.976L256.104 257.418L248.623 252.976L250.536 261.464L244 267.206L252.663 268.009L256.104 276Z" fill="url(#paint23_linear_1_1908)"/>
  <path d="M303.61 312.851L298.104 325.636L292.598 312.851L278.737 311.565L289.196 302.378L286.135 288.798L298.104 295.905L310.074 288.798L307.013 302.378L317.471 311.565L303.61 312.851Z" fill="url(#paint24_linear_1_1908)"/>
  <path d="M343.546 268.009L340.104 276L336.663 268.009L328 267.206L334.536 261.464L332.623 252.976L340.104 257.418L347.585 252.976L345.672 261.464L352.209 267.206L343.546 268.009Z" fill="url(#paint25_linear_1_1908)"/>
  <path d="M382.104 325.636L387.61 312.851L401.471 311.565L391.013 302.378L394.074 288.798L382.104 295.905L370.135 288.798L373.196 302.378L362.737 311.565L376.598 312.851L382.104 325.636Z" fill="url(#paint26_linear_1_1908)"/>
  <path d="M424.104 276L427.546 268.009L436.209 267.206L429.672 261.464L431.585 252.976L424.104 257.418L416.623 252.976L418.536 261.464L412 267.206L420.663 268.009L424.104 276Z" fill="url(#paint27_linear_1_1908)"/>
  <path d="M51.6103 228.851L46.1044 241.636L40.5984 228.851L26.7374 227.565L37.1955 218.378L34.1349 204.798L46.1044 211.905L58.0738 204.798L55.0132 218.378L65.4713 227.565L51.6103 228.851Z" fill="url(#paint28_linear_1_1908)"/>
  <path d="M91.5456 184.009L88.1044 192L84.6631 184.009L76 183.206L82.5364 177.464L80.6235 168.976L88.1044 173.418L95.5853 168.976L93.6724 177.464L100.209 183.206L91.5456 184.009Z" fill="url(#paint29_linear_1_1908)"/>
  <path d="M7.54557 184.009L4.10436 192L0.66314 184.009L-8 183.206L-1.46365 177.464L-3.37655 168.976L4.10436 173.418L11.5853 168.976L9.67236 177.464L16.2087 183.206L7.54557 184.009Z" fill="url(#paint30_linear_1_1908)"/>
  <path d="M130.104 241.636L135.61 228.851L149.471 227.565L139.013 218.378L142.074 204.798L130.104 211.905L118.135 204.798L121.196 218.378L110.737 227.565L124.598 228.851L130.104 241.636Z" fill="url(#paint31_linear_1_1908)"/>
  <path d="M172.104 192L175.546 184.009L184.209 183.206L177.672 177.464L179.585 168.976L172.104 173.418L164.623 168.976L166.536 177.464L160 183.206L168.663 184.009L172.104 192Z" fill="url(#paint32_linear_1_1908)"/>
  <path d="M219.61 228.851L214.104 241.636L208.598 228.851L194.737 227.565L205.196 218.378L202.135 204.798L214.104 211.905L226.074 204.798L223.013 218.378L233.471 227.565L219.61 228.851Z" fill="url(#paint33_linear_1_1908)"/>
  <path d="M259.546 184.009L256.104 192L252.663 184.009L244 183.206L250.536 177.464L248.623 168.976L256.104 173.418L263.585 168.976L261.672 177.464L268.209 183.206L259.546 184.009Z" fill="url(#paint34_linear_1_1908)"/>
  <path d="M298.104 241.636L303.61 228.851L317.471 227.565L307.013 218.378L310.074 204.798L298.104 211.905L286.135 204.798L289.196 218.378L278.737 227.565L292.598 228.851L298.104 241.636Z" fill="url(#paint35_linear_1_1908)"/>
  <path d="M340.104 192L343.546 184.009L352.209 183.206L345.672 177.464L347.585 168.976L340.104 173.418L332.623 168.976L334.536 177.464L328 183.206L336.663 184.009L340.104 192Z" fill="url(#paint36_linear_1_1908)"/>
  <path d="M387.61 228.851L382.104 241.636L376.598 228.851L362.737 227.565L373.196 218.378L370.135 204.798L382.104 211.905L394.074 204.798L391.013 218.378L401.471 227.565L387.61 228.851Z" fill="url(#paint37_linear_1_1908)"/>
  <path d="M427.546 184.009L424.104 192L420.663 184.009L412 183.206L418.536 177.464L416.623 168.976L424.104 173.418L431.585 168.976L429.672 177.464L436.209 183.206L427.546 184.009Z" fill="url(#paint38_linear_1_1908)"/>
  <path d="M46.1044 157.636L51.6103 144.851L65.4713 143.565L55.0132 134.378L58.0738 120.798L46.1044 127.905L34.1349 120.798L37.1955 134.378L26.7374 143.565L40.5984 144.851L46.1044 157.636Z" fill="url(#paint39_linear_1_1908)"/>
  <path d="M88.1044 108L91.5456 100.009L100.209 99.2057L93.6724 93.4636L95.5853 84.9762L88.1044 89.4182L80.6235 84.9762L82.5364 93.4636L76 99.2057L84.6631 100.009L88.1044 108Z" fill="url(#paint40_linear_1_1908)"/>
  <path d="M4.10436 108L7.54557 100.009L16.2087 99.2057L9.67236 93.4636L11.5853 84.9762L4.10436 89.4182L-3.37655 84.9762L-1.46365 93.4636L-8 99.2057L0.66314 100.009L4.10436 108Z" fill="url(#paint41_linear_1_1908)"/>
  <path d="M135.61 144.851L130.104 157.636L124.598 144.851L110.737 143.565L121.196 134.378L118.135 120.798L130.104 127.905L142.074 120.798L139.013 134.378L149.471 143.565L135.61 144.851Z" fill="url(#paint42_linear_1_1908)"/>
  <path d="M175.546 100.009L172.104 108L168.663 100.009L160 99.2057L166.536 93.4636L164.623 84.9762L172.104 89.4182L179.585 84.9762L177.672 93.4636L184.209 99.2057L175.546 100.009Z" fill="url(#paint43_linear_1_1908)"/>
  <path d="M214.104 157.636L219.61 144.851L233.471 143.565L223.013 134.378L226.074 120.798L214.104 127.905L202.135 120.798L205.196 134.378L194.737 143.565L208.598 144.851L214.104 157.636Z" fill="url(#paint44_linear_1_1908)"/>
  <path d="M256.104 108L259.546 100.009L268.209 99.2057L261.672 93.4636L263.585 84.9762L256.104 89.4182L248.623 84.9762L250.536 93.4636L244 99.2057L252.663 100.009L256.104 108Z" fill="url(#paint45_linear_1_1908)"/>
  <path d="M303.61 144.851L298.104 157.636L292.598 144.851L278.737 143.565L289.196 134.378L286.135 120.798L298.104 127.905L310.074 120.798L307.013 134.378L317.471 143.565L303.61 144.851Z" fill="url(#paint46_linear_1_1908)"/>
  <path d="M343.546 100.009L340.104 108L336.663 100.009L328 99.2057L334.536 93.4636L332.623 84.9762L340.104 89.4182L347.585 84.9762L345.672 93.4636L352.209 99.2057L343.546 100.009Z" fill="url(#paint47_linear_1_1908)"/>
  <path d="M382.104 157.636L387.61 144.851L401.471 143.565L391.013 134.378L394.074 120.798L382.104 127.905L370.135 120.798L373.196 134.378L362.737 143.565L376.598 144.851L382.104 157.636Z" fill="url(#paint48_linear_1_1908)"/>
  <path d="M424.104 108L427.546 100.009L436.209 99.2057L429.672 93.4636L431.585 84.9762L424.104 89.4182L416.623 84.9762L418.536 93.4636L412 99.2057L420.663 100.009L424.104 108Z" fill="url(#paint49_linear_1_1908)"/>
  <path d="M51.6103 60.851L46.1044 73.6364L40.5984 60.851L26.7374 59.5654L37.1955 50.3781L34.1349 36.7982L46.1044 43.9055L58.0738 36.7982L55.0132 50.3781L65.4713 59.5654L51.6103 60.851Z" fill="url(#paint50_linear_1_1908)"/>
  <path d="M91.5456 16.0092L88.1044 24L84.6631 16.0092L76 15.2057L82.5364 9.46359L80.6235 0.976166L88.1044 5.41818L95.5853 0.976166L93.6724 9.46359L100.209 15.2057L91.5456 16.0092Z" fill="url(#paint51_linear_1_1908)"/>
  <path d="M7.54557 16.0092L4.10436 24L0.66314 16.0092L-8 15.2057L-1.46365 9.46359L-3.37655 0.976166L4.10436 5.41818L11.5853 0.976166L9.67236 9.46359L16.2087 15.2057L7.54557 16.0092Z" fill="url(#paint52_linear_1_1908)"/>
  <path d="M130.104 73.6364L135.61 60.851L149.471 59.5654L139.013 50.3781L142.074 36.7982L130.104 43.9055L118.135 36.7982L121.196 50.3781L110.737 59.5654L124.598 60.851L130.104 73.6364Z" fill="url(#paint53_linear_1_1908)"/>
  <path d="M172.104 24L175.546 16.0092L184.209 15.2057L177.672 9.46359L179.585 0.976166L172.104 5.41818L164.623 0.976166L166.536 9.46359L160 15.2057L168.663 16.0092L172.104 24Z" fill="url(#paint54_linear_1_1908)"/>
  <path d="M219.61 60.851L214.104 73.6364L208.598 60.851L194.737 59.5654L205.196 50.3781L202.135 36.7982L214.104 43.9055L226.074 36.7982L223.013 50.3781L233.471 59.5654L219.61 60.851Z" fill="url(#paint55_linear_1_1908)"/>
  <path d="M259.546 16.0092L256.104 24L252.663 16.0092L244 15.2057L250.536 9.46359L248.623 0.976166L256.104 5.41818L263.585 0.976166L261.672 9.46359L268.209 15.2057L259.546 16.0092Z" fill="url(#paint56_linear_1_1908)"/>
  <path d="M298.104 73.6364L303.61 60.851L317.471 59.5654L307.013 50.3781L310.074 36.7982L298.104 43.9055L286.135 36.7982L289.196 50.3781L278.737 59.5654L292.598 60.851L298.104 73.6364Z" fill="url(#paint57_linear_1_1908)"/>
  <path d="M340.104 24L343.546 16.0092L352.209 15.2057L345.672 9.46359L347.585 0.976166L340.104 5.41818L332.623 0.976166L334.536 9.46359L328 15.2057L336.663 16.0092L340.104 24Z" fill="url(#paint58_linear_1_1908)"/>
  <path d="M387.61 60.851L382.104 73.6364L376.598 60.851L362.737 59.5654L373.196 50.3781L370.135 36.7982L382.104 43.9055L394.074 36.7982L391.013 50.3781L401.471 59.5654L387.61 60.851Z" fill="url(#paint59_linear_1_1908)"/>
  <path d="M427.546 16.0092L424.104 24L420.663 16.0092L412 15.2057L418.536 9.46359L416.623 0.976166L424.104 5.41818L431.585 0.976166L429.672 9.46359L436.209 15.2057L427.546 16.0092Z" fill="url(#paint60_linear_1_1908)"/>
  <defs>
    <linearGradient id="paint0_linear_1_1908" x1="214.104" y1="444" x2="214.104" y2="0.976166" gradientUnits="userSpaceOnUse">
      <stop stop-color="white" stop-opacity="0.05"/>
      <stop offset="1" stop-color="white" stop-opacity="0"/>
    </linearGradient>
    <linearGradient id="paint1_linear_1_1908" x1="214.104" y1="444" x2="214.104" y2="0.976166" gradientUnits="userSpaceOnUse">
      <stop stop-color="white" stop-opacity="0.05"/>
      <stop offset="1" stop-color="white" stop-opacity="0"/>
    </linearGradient>
    <linearGradient id="paint2_linear_1_1908" x1="214.104" y1="444" x2="214.104" y2="0.976166" gradientUnits="userSpaceOnUse">
      <stop stop-color="white" stop-opacity="0.05"/>
      <stop offset="1" stop-color="white" stop-opacity="0"/>
    </linearGradient>
    <linearGradient id="paint3_linear_1_1908" x1="214.104" y1="444" x2="214.104" y2="0.976166" gradientUnits="userSpaceOnUse">
      <stop stop-color="white" stop-opacity="0.05"/>
      <stop offset="1" stop-color="white" stop-opacity="0"/>
    </linearGradient>
    <linearGradient id="paint4_linear_1_1908" x1="214.104" y1="444" x2="214.104" y2="0.976166" gradientUnits="userSpaceOnUse">
      <stop stop-color="white" stop-opacity="0.05"/>
      <stop offset="1" stop-color="white" stop-opacity="0"/>
    </linearGradient>
    <linearGradient id="paint5_linear_1_1908" x1="214.104" y1="444" x2="214.104" y2="0.976166" gradientUnits="userSpaceOnUse">
      <stop stop-color="white" stop-opacity="0.05"/>
      <stop offset="1" stop-color="white" stop-opacity="0"/>
    </linearGradient>
    <linearGradient id="paint6_linear_1_1908" x1="214.104" y1="444" x2="214.104" y2="0.976166" gradientUnits="userSpaceOnUse">
      <stop stop-color="white" stop-opacity="0.05"/>
      <stop offset="1" stop-color="white" stop-opacity="0"/>
    </linearGradient>
    <linearGradient id="paint7_linear_1_1908" x1="214.104" y1="444" x2="214.104" y2="0.976166" gradientUnits="userSpaceOnUse">
      <stop stop-color="white" stop-opacity="0.05"/>
      <stop offset="1" stop-color="white" stop-opacity="0"/>
    </linearGradient>
    <linearGradient id="paint8_linear_1_1908" x1="214.104" y1="444" x2="214.104" y2="0.976166" gradientUnits="userSpaceOnUse">
      <stop stop-color="white" stop-opacity="0.05"/>
      <stop offset="1" stop-color="white" stop-opacity="0"/>
    </linearGradient>
    <linearGradient id="paint9_linear_1_1908" x1="214.104" y1="444" x2="214.104" y2="0.976166" gradientUnits="userSpaceOnUse">
      <stop stop-color="white" stop-opacity="0.05"/>
      <stop offset="1" stop-color="white" stop-opacity="0"/>
    </linearGradient>
    <linearGradient id="paint10_linear_1_1908" x1="214.104" y1="444" x2="214.104" y2="0.976166" gradientUnits="userSpaceOnUse">
      <stop stop-color="white" stop-opacity="0.05"/>
      <stop offset="1" stop-color="white" stop-opacity="0"/>
    </linearGradient>
    <linearGradient id="paint11_linear_1_1908" x1="214.104" y1="444" x2="214.104" y2="0.976166" gradientUnits="userSpaceOnUse">
      <stop stop-color="white" stop-opacity="0.05"/>
      <stop offset="1" stop-color="white" stop-opacity="0"/>
    </linearGradient>
    <linearGradient id="paint12_linear_1_1908" x1="214.104" y1="444" x2="214.104" y2="0.976166" gradientUnits="userSpaceOnUse">
      <stop stop-color="white" stop-opacity="0.05"/>
      <stop offset="1" stop-color="white" stop-opacity="0"/>
    </linearGradient>
    <linearGradient id="paint13_linear_1_1908" x1="214.104" y1="444" x2="214.104" y2="0.976166" gradientUnits="userSpaceOnUse">
      <stop stop-color="white" stop-opacity="0.05"/>
      <stop offset="1" stop-color="white" stop-opacity="0"/>
    </linearGradient>
    <linearGradient id="paint14_linear_1_1908" x1="214.104" y1="444" x2="214.104" y2="0.976166" gradientUnits="userSpaceOnUse">
      <stop stop-color="white" stop-opacity="0.05"/>
      <stop offset="1" stop-color="white" stop-opacity="0"/>
    </linearGradient>
    <linearGradient id="paint15_linear_1_1908" x1="214.104" y1="444" x2="214.104" y2="0.976166" gradientUnits="userSpaceOnUse">
      <stop stop-color="white" stop-opacity="0.05"/>
      <stop offset="1" stop-color="white" stop-opacity="0"/>
    </linearGradient>
    <linearGradient id="paint16_linear_1_1908" x1="214.104" y1="444" x2="214.104" y2="0.976166" gradientUnits="userSpaceOnUse">
      <stop stop-color="white" stop-opacity="0.05"/>
      <stop offset="1" stop-color="white" stop-opacity="0"/>
    </linearGradient>
    <linearGradient id="paint17_linear_1_1908" x1="214.104" y1="444" x2="214.104" y2="0.976166" gradientUnits="userSpaceOnUse">
      <stop stop-color="white" stop-opacity="0.05"/>
      <stop offset="1" stop-color="white" stop-opacity="0"/>
    </linearGradient>
    <linearGradient id="paint18_linear_1_1908" x1="214.104" y1="444" x2="214.104" y2="0.976166" gradientUnits="userSpaceOnUse">
      <stop stop-color="white" stop-opacity="0.05"/>
      <stop offset="1" stop-color="white" stop-opacity="0"/>
    </linearGradient>
    <linearGradient id="paint19_linear_1_1908" x1="214.104" y1="444" x2="214.104" y2="0.976166" gradientUnits="userSpaceOnUse">
      <stop stop-color="white" stop-opacity="0.05"/>
      <stop offset="1" stop-color="white" stop-opacity="0"/>
    </linearGradient>
    <linearGradient id="paint20_linear_1_1908" x1="214.104" y1="444" x2="214.104" y2="0.976166" gradientUnits="userSpaceOnUse">
      <stop stop-color="white" stop-opacity="0.05"/>
      <stop offset="1" stop-color="white" stop-opacity="0"/>
    </linearGradient>
    <linearGradient id="paint21_linear_1_1908" x1="214.104" y1="444" x2="214.104" y2="0.976166" gradientUnits="userSpaceOnUse">
      <stop stop-color="white" stop-opacity="0.05"/>
      <stop offset="1" stop-color="white" stop-opacity="0"/>
    </linearGradient>
    <linearGradient id="paint22_linear_1_1908" x1="214.104" y1="444" x2="214.104" y2="0.976166" gradientUnits="userSpaceOnUse">
      <stop stop-color="white" stop-opacity="0.05"/>
      <stop offset="1" stop-color="white" stop-opacity="0"/>
    </linearGradient>
    <linearGradient id="paint23_linear_1_1908" x1="214.104" y1="444" x2="214.104" y2="0.976166" gradientUnits="userSpaceOnUse">
      <stop stop-color="white" stop-opacity="0.05"/>
      <stop offset="1" stop-color="white" stop-opacity="0"/>
    </linearGradient>
    <linearGradient id="paint24_linear_1_1908" x1="214.104" y1="444" x2="214.104" y2="0.976166" gradientUnits="userSpaceOnUse">
      <stop stop-color="white" stop-opacity="0.05"/>
      <stop offset="1" stop-color="white" stop-opacity="0"/>
    </linearGradient>
    <linearGradient id="paint25_linear_1_1908" x1="214.104" y1="444" x2="214.104" y2="0.976166" gradientUnits="userSpaceOnUse">
      <stop stop-color="white" stop-opacity="0.05"/>
      <stop offset="1" stop-color="white" stop-opacity="0"/>
    </linearGradient>
    <linearGradient id="paint26_linear_1_1908" x1="214.104" y1="444" x2="214.104" y2="0.976166" gradientUnits="userSpaceOnUse">
      <stop stop-color="white" stop-opacity="0.05"/>
      <stop offset="1" stop-color="white" stop-opacity="0"/>
    </linearGradient>
    <linearGradient id="paint27_linear_1_1908" x1="214.104" y1="444" x2="214.104" y2="0.976166" gradientUnits="userSpaceOnUse">
      <stop stop-color="white" stop-opacity="0.05"/>
      <stop offset="1" stop-color="white" stop-opacity="0"/>
    </linearGradient>
    <linearGradient id="paint28_linear_1_1908" x1="214.104" y1="444" x2="214.104" y2="0.976166" gradientUnits="userSpaceOnUse">
      <stop stop-color="white" stop-opacity="0.05"/>
      <stop offset="1" stop-color="white" stop-opacity="0"/>
    </linearGradient>
    <linearGradient id="paint29_linear_1_1908" x1="214.104" y1="444" x2="214.104" y2="0.976166" gradientUnits="userSpaceOnUse">
      <stop stop-color="white" stop-opacity="0.05"/>
      <stop offset="1" stop-color="white" stop-opacity="0"/>
    </linearGradient>
    <linearGradient id="paint30_linear_1_1908" x1="214.104" y1="444" x2="214.104" y2="0.976166" gradientUnits="userSpaceOnUse">
      <stop stop-color="white" stop-opacity="0.05"/>
      <stop offset="1" stop-color="white" stop-opacity="0"/>
    </linearGradient>
    <linearGradient id="paint31_linear_1_1908" x1="214.104" y1="444" x2="214.104" y2="0.976166" gradientUnits="userSpaceOnUse">
      <stop stop-color="white" stop-opacity="0.05"/>
      <stop offset="1" stop-color="white" stop-opacity="0"/>
    </linearGradient>
    <linearGradient id="paint32_linear_1_1908" x1="214.104" y1="444" x2="214.104" y2="0.976166" gradientUnits="userSpaceOnUse">
      <stop stop-color="white" stop-opacity="0.05"/>
      <stop offset="1" stop-color="white" stop-opacity="0"/>
    </linearGradient>
    <linearGradient id="paint33_linear_1_1908" x1="214.104" y1="444" x2="214.104" y2="0.976166" gradientUnits="userSpaceOnUse">
      <stop stop-color="white" stop-opacity="0.05"/>
      <stop offset="1" stop-color="white" stop-opacity="0"/>
    </linearGradient>
    <linearGradient id="paint34_linear_1_1908" x1="214.104" y1="444" x2="214.104" y2="0.976166" gradientUnits="userSpaceOnUse">
      <stop stop-color="white" stop-opacity="0.05"/>
      <stop offset="1" stop-color="white" stop-opacity="0"/>
    </linearGradient>
    <linearGradient id="paint35_linear_1_1908" x1="214.104" y1="444" x2="214.104" y2="0.976166" gradientUnits="userSpaceOnUse">
      <stop stop-color="white" stop-opacity="0.05"/>
      <stop offset="1" stop-color="white" stop-opacity="0"/>
    </linearGradient>
    <linearGradient id="paint36_linear_1_1908" x1="214.104" y1="444" x2="214.104" y2="0.976166" gradientUnits="userSpaceOnUse">
      <stop stop-color="white" stop-opacity="0.05"/>
      <stop offset="1" stop-color="white" stop-opacity="0"/>
    </linearGradient>
    <linearGradient id="paint37_linear_1_1908" x1="214.104" y1="444" x2="214.104" y2="0.976166" gradientUnits="userSpaceOnUse">
      <stop stop-color="white" stop-opacity="0.05"/>
      <stop offset="1" stop-color="white" stop-opacity="0"/>
    </linearGradient>
    <linearGradient id="paint38_linear_1_1908" x1="214.104" y1="444" x2="214.104" y2="0.976166" gradientUnits="userSpaceOnUse">
      <stop stop-color="white" stop-opacity="0.05"/>
      <stop offset="1" stop-color="white" stop-opacity="0"/>
    </linearGradient>
    <linearGradient id="paint39_linear_1_1908" x1="214.104" y1="444" x2="214.104" y2="0.976166" gradientUnits="userSpaceOnUse">
      <stop stop-color="white" stop-opacity="0.05"/>
      <stop offset="1" stop-color="white" stop-opacity="0"/>
    </linearGradient>
    <linearGradient id="paint40_linear_1_1908" x1="214.104" y1="444" x2="214.104" y2="0.976166" gradientUnits="userSpaceOnUse">
      <stop stop-color="white" stop-opacity="0.05"/>
      <stop offset="1" stop-color="white" stop-opacity="0"/>
    </linearGradient>
    <linearGradient id="paint41_linear_1_1908" x1="214.104" y1="444" x2="214.104" y2="0.976166" gradientUnits="userSpaceOnUse">
      <stop stop-color="white" stop-opacity="0.05"/>
      <stop offset="1" stop-color="white" stop-opacity="0"/>
    </linearGradient>
    <linearGradient id="paint42_linear_1_1908" x1="214.104" y1="444" x2="214.104" y2="0.976166" gradientUnits="userSpaceOnUse">
      <stop stop-color="white" stop-opacity="0.05"/>
      <stop offset="1" stop-color="white" stop-opacity="0"/>
    </linearGradient>
    <linearGradient id="paint43_linear_1_1908" x1="214.104" y1="444" x2="214.104" y2="0.976166" gradientUnits="userSpaceOnUse">
      <stop stop-color="white" stop-opacity="0.05"/>
      <stop offset="1" stop-color="white" stop-opacity="0"/>
    </linearGradient>
    <linearGradient id="paint44_linear_1_1908" x1="214.104" y1="444" x2="214.104" y2="0.976166" gradientUnits="userSpaceOnUse">
      <stop stop-color="white" stop-opacity="0.05"/>
      <stop offset="1" stop-color="white" stop-opacity="0"/>
    </linearGradient>
    <linearGradient id="paint45_linear_1_1908" x1="214.104" y1="444" x2="214.104" y2="0.976166" gradientUnits="userSpaceOnUse">
      <stop stop-color="white" stop-opacity="0.05"/>
      <stop offset="1" stop-color="white" stop-opacity="0"/>
    </linearGradient>
    <linearGradient id="paint46_linear_1_1908" x1="214.104" y1="444" x2="214.104" y2="0.976166" gradientUnits="userSpaceOnUse">
      <stop stop-color="white" stop-opacity="0.05"/>
      <stop offset="1" stop-color="white" stop-opacity="0"/>
    </linearGradient>
    <linearGradient id="paint47_linear_1_1908" x1="214.104" y1="444" x2="214.104" y2="0.976166" gradientUnits="userSpaceOnUse">
      <stop stop-color="white" stop-opacity="0.05"/>
      <stop offset="1" stop-color="white" stop-opacity="0"/>
    </linearGradient>
    <linearGradient id="paint48_linear_1_1908" x1="214.104" y1="444" x2="214.104" y2="0.976166" gradientUnits="userSpaceOnUse">
      <stop stop-color="white" stop-opacity="0.05"/>
      <stop offset="1" stop-color="white" stop-opacity="0"/>
    </linearGradient>
    <linearGradient id="paint49_linear_1_1908" x1="214.104" y1="444" x2="214.104" y2="0.976166" gradientUnits="userSpaceOnUse">
      <stop stop-color="white" stop-opacity="0.05"/>
      <stop offset="1" stop-color="white" stop-opacity="0"/>
    </linearGradient>
    <linearGradient id="paint50_linear_1_1908" x1="214.104" y1="444" x2="214.104" y2="0.976166" gradientUnits="userSpaceOnUse">
      <stop stop-color="white" stop-opacity="0.05"/>
      <stop offset="1" stop-color="white" stop-opacity="0"/>
    </linearGradient>
    <linearGradient id="paint51_linear_1_1908" x1="214.104" y1="444" x2="214.104" y2="0.976166" gradientUnits="userSpaceOnUse">
      <stop stop-color="white" stop-opacity="0.05"/>
      <stop offset="1" stop-color="white" stop-opacity="0"/>
    </linearGradient>
    <linearGradient id="paint52_linear_1_1908" x1="214.104" y1="444" x2="214.104" y2="0.976166" gradientUnits="userSpaceOnUse">
      <stop stop-color="white" stop-opacity="0.05"/>
      <stop offset="1" stop-color="white" stop-opacity="0"/>
    </linearGradient>
    <linearGradient id="paint53_linear_1_1908" x1="214.104" y1="444" x2="214.104" y2="0.976166" gradientUnits="userSpaceOnUse">
      <stop stop-color="white" stop-opacity="0.05"/>
      <stop offset="1" stop-color="white" stop-opacity="0"/>
    </linearGradient>
    <linearGradient id="paint54_linear_1_1908" x1="214.104" y1="444" x2="214.104" y2="0.976166" gradientUnits="userSpaceOnUse">
      <stop stop-color="white" stop-opacity="0.05"/>
      <stop offset="1" stop-color="white" stop-opacity="0"/>
    </linearGradient>
    <linearGradient id="paint55_linear_1_1908" x1="214.104" y1="444" x2="214.104" y2="0.976166" gradientUnits="userSpaceOnUse">
      <stop stop-color="white" stop-opacity="0.05"/>
      <stop offset="1" stop-color="white" stop-opacity="0"/>
    </linearGradient>
    <linearGradient id="paint56_linear_1_1908" x1="214.104" y1="444" x2="214.104" y2="0.976166" gradientUnits="userSpaceOnUse">
      <stop stop-color="white" stop-opacity="0.05"/>
      <stop offset="1" stop-color="white" stop-opacity="0"/>
    </linearGradient>
    <linearGradient id="paint57_linear_1_1908" x1="214.104" y1="444" x2="214.104" y2="0.976166" gradientUnits="userSpaceOnUse">
      <stop stop-color="white" stop-opacity="0.05"/>
      <stop offset="1" stop-color="white" stop-opacity="0"/>
    </linearGradient>
    <linearGradient id="paint58_linear_1_1908" x1="214.104" y1="444" x2="214.104" y2="0.976166" gradientUnits="userSpaceOnUse">
      <stop stop-color="white" stop-opacity="0.05"/>
      <stop offset="1" stop-color="white" stop-opacity="0"/>
    </linearGradient>
    <linearGradient id="paint59_linear_1_1908" x1="214.104" y1="444" x2="214.104" y2="0.976166" gradientUnits="userSpaceOnUse">
      <stop stop-color="white" stop-opacity="0.05"/>
      <stop offset="1" stop-color="white" stop-opacity="0"/>
    </linearGradient>
    <linearGradient id="paint60_linear_1_1908" x1="214.104" y1="444" x2="214.104" y2="0.976166" gradientUnits="userSpaceOnUse">
      <stop stop-color="white" stop-opacity="0.05"/>
      <stop offset="1" stop-color="white" stop-opacity="0"/>
    </linearGradient>
  </defs>
</svg>